# xmcd CD database file
#
# Track frame offsets:
#	150
#	19598
#	60710
#	83450
#	96303
#	142801
#	170793
#	195613
#	238225
#
# Disc length: 3460 seconds
#
# Revision: 0
# Processed by: cddbd v1.5.2PL0 Copyright (c) Steve Scherf et al.
# Submitted via: CDex 1.51
#
DISCID=710d8209
DTITLE=Terry Jenoure - Helios String Quartet - Sebastian Gramss - Looks Like Me
DYEAR=2006
DGENRE=Jazz
TTITLE0=Intrada
TTITLE1=Sight
TTITLE2=Looks Like Me
TTITLE3=Moment Musical
TTITLE4=Fantasia
TTITLE5=Points
TTITLE6=Humoresque
TTITLE7=Cave
TTITLE8=Song Without Words
EXTD=YEAR: 2006
EXTT0=
EXTT1=
EXTT2=
EXTT3=
EXTT4=
EXTT5=
EXTT6=
EXTT7=
EXTT8=
PLAYORDER=
